# xmcd CD database file
#
# Track frame offsets:
#	150
#	11366
#	25852
#	35775
#	48501
#	62847
#	75915
#	87630
#	99842
#	111266
#	123242
#	133471
#	144082
#	157371
#	168438
#	179594
#	190589
#	203044
#	214608
#	224535
#	238526
#	251495
#	264882
#	277897
#	289611
#
# Disc length: 3997 seconds
#
# Revision: 2
# Processed by: cddbd v1.5.2PL0 Copyright (c) Steve Scherf et al.
# Submitted via: CDex 1.79
#
DISCID=650f9b19
DTITLE=Lefty Frizzell - Three Classic Albums Plus Singles CD 1
DYEAR=2015
DGENRE=Country
TTITLE0=Blue Yodel No. 2
TTITLE1=Treasure Untold
TTITLE2=Brakeman's Blues
TTITLE3=My Old Pal
TTITLE4=Blue Yodel No. 6
TTITLE5=Travelin' Blues
TTITLE6=My Rough And Rowdy Ways
TTITLE7=Lullaby Yodel
TTITLE8=Shine, Shave, Shower (It's Saturday)
TTITLE9=My Baby's Just Like Money
TTITLE10=Give Me More, More, More (Of Your Kisses)
TTITLE11=How Long Will It Take
TTITLE12=You're Here, So Everything's Alright
TTITLE13=Forever (And Always)
TTITLE14=I Know You're Lonesome (While Waiting For Me)
TTITLE15=I'm An Old, Old Man
TTITLE16=You're Just Mine
TTITLE17=Time Changes Things
TTITLE18=Bring Your Sweet Self Back To Me
TTITLE19=Never No Mo' Blues
TTITLE20=Sleep Baby, Sleep
TTITLE21=California Blue
TTITLE22=(I'm) Lonely And Blue
TTITLE23=We Crucified Our Jesus
TTITLE24=When It Comes To Measuring Love
EXTD=YEAR: 2015
EXTT0=
EXTT1=
EXTT2=
EXTT3=
EXTT4=
EXTT5=
EXTT6=
EXTT7=
EXTT8=
EXTT9=
EXTT10=
EXTT11=
EXTT12=
EXTT13=
EXTT14=
EXTT15=
EXTT16=
EXTT17=
EXTT18=
EXTT19=
EXTT20=
EXTT21=
EXTT22=
EXTT23=
EXTT24=
PLAYORDER=
